<svg width="211" height="203" viewBox="0 0 211 203" fill="none" xmlns="http://www.w3.org/2000/svg">
<path d="M21.6896 42.0343C19.6989 42.045 17.9994 41.0196 16.5066 40.1167C15.8386 39.6882 15.1394 39.3103 14.415 38.9863C13.6385 38.6938 12.8408 38.4611 12.0289 38.2902C10.2667 37.8628 8.44254 37.4192 7.07107 36.0788C5.6996 34.7384 5.24878 32.9149 4.80237 31.145C4.62081 30.3355 4.37958 29.5405 4.08066 28.7666C3.74884 28.0457 3.36347 27.3506 2.92778 26.6873C2.02548 25.2166 0.98187 23.5282 0.971165 21.5375C0.960461 19.5468 1.98585 17.8473 2.88871 16.3545C3.31723 15.6865 3.6951 14.9874 4.01915 14.2629C4.30974 13.4858 4.54241 12.6883 4.71524 11.8768C5.14266 10.1146 5.58623 8.29046 6.93075 6.91897C8.27527 5.54748 10.0905 5.10082 11.8645 4.65439C12.6741 4.47283 13.469 4.23161 14.243 3.93268C14.9639 3.60086 15.659 3.21549 16.3223 2.7798C17.7889 1.8734 19.4772 0.829792 21.4679 0.819087C23.4586 0.808383 25.1581 1.83377 26.6509 2.73663C27.3189 3.16515 28.0181 3.54303 28.7425 3.86707C29.5196 4.15766 30.3171 4.39033 31.1286 4.56317C32.8908 4.99058 34.715 5.43415 36.0865 6.77868C37.4579 8.1232 37.9046 9.93844 38.351 11.7125C38.5326 12.522 38.7738 13.317 39.0727 14.0909C39.4046 14.8118 39.7899 15.5069 40.2256 16.1702C41.132 17.6368 42.1756 19.3252 42.1863 21.3159C42.197 23.3066 41.1716 25.0061 40.2688 26.4988C39.8403 27.1668 39.4624 27.866 39.1383 28.5904C38.8478 29.3675 38.6151 30.1651 38.4423 30.9765C38.0148 32.7387 37.5713 34.5629 36.2309 35.9344C34.8905 37.3058 33.067 37.7525 31.2971 38.1989C30.487 38.3786 29.6919 38.6198 28.9187 38.9206C28.1977 39.2525 27.5027 39.6378 26.8393 40.0735C25.3686 40.9799 23.6803 42.0236 21.6896 42.0343ZM21.4812 3.292C20.183 3.29898 18.9341 4.07232 17.6073 4.89554C16.8349 5.39469 16.0257 5.83444 15.1867 6.21099C14.2995 6.55829 13.3876 6.83874 12.4586 7.04999C10.9603 7.42899 9.54854 7.78692 8.68767 8.65709C7.82681 9.52727 7.46347 10.9429 7.12121 12.4451C6.91997 13.3763 6.64935 14.2912 6.3116 15.1821C5.94012 16.0255 5.50496 16.8394 5.00989 17.6167C4.19694 18.9647 3.43709 20.2259 3.44408 21.5242C3.45106 22.8225 4.22442 24.0754 5.04762 25.3981C5.54677 26.1705 5.98652 26.9797 6.36307 27.8187C6.71037 28.7059 6.99082 29.6178 7.20207 30.5469C7.58107 32.0451 7.939 33.4569 8.80917 34.3177C9.67935 35.1786 11.095 35.5419 12.5971 35.8842C13.5282 36.086 14.4431 36.3566 15.3341 36.6938C16.1775 37.0653 16.9914 37.5005 17.7688 37.9955C19.1168 38.8085 20.378 39.5683 21.6763 39.5613C22.9745 39.5544 24.2275 38.781 25.5502 37.9578C26.3226 37.4586 27.1318 37.0189 27.9708 36.6424C28.8582 36.2956 29.7701 36.0152 30.6989 35.8034C32.1972 35.4244 33.6131 35.0664 34.4698 34.1962C35.3266 33.3261 35.694 31.9104 36.0363 30.4083C36.2375 29.477 36.5082 28.5622 36.8459 27.6713C37.2174 26.8279 37.6525 26.014 38.1476 25.2366C38.9606 23.8886 39.7204 22.6274 39.7134 21.3292C39.7064 20.0309 38.9331 18.7779 38.1099 17.4552C37.6107 16.6828 37.171 15.8736 36.7944 15.0346C36.4471 14.1474 36.1667 13.2355 35.9554 12.3065C35.5764 10.8083 35.2185 9.39646 34.3483 8.5356C33.4782 7.67473 32.0625 7.3114 30.5603 6.96501C29.6286 6.76575 28.7136 6.49508 27.8233 6.1554C26.9799 5.78392 26.166 5.34876 25.3887 4.85369C24.0407 4.04486 22.7795 3.28502 21.4812 3.292Z" fill="white" fill-opacity="0.08"/>
<path d="M20.5396 30.4997C17.9043 30.5106 15.3722 29.4765 13.4981 27.6239C11.6239 25.7713 10.5605 23.2514 10.5409 20.6162C10.5336 18.4427 11.388 16.3548 12.9171 14.81C14.4461 13.2652 16.5251 12.3894 18.6986 12.3744C20.5034 12.3669 22.2377 13.0749 23.5215 14.3435C24.8053 15.612 25.534 17.3376 25.5481 19.1424C25.554 20.652 24.9609 22.1023 23.8988 23.1752C22.8367 24.248 21.3924 24.8556 19.8828 24.8648L19.8695 22.3919C20.7236 22.3873 21.5409 22.0439 22.142 21.4371C22.743 20.8304 23.0787 20.0098 23.0752 19.1557C23.0657 18.0065 22.6013 16.9078 21.7835 16.1003C20.9657 15.2928 19.8612 14.8422 18.7119 14.8473C17.1925 14.8577 15.7392 15.4704 14.671 16.5509C13.6027 17.6315 13.0068 19.0917 13.0139 20.6112C13.031 22.5894 13.8311 24.4802 15.239 25.87C16.6469 27.2598 18.548 28.0353 20.5263 28.0268C23.0835 28.0098 25.5296 26.9796 27.3285 25.162C29.1274 23.3445 30.1323 20.8878 30.1229 18.3306L32.5958 18.3173C32.6076 21.53 31.3452 24.6164 29.0853 26.9C26.8254 29.1836 23.7523 30.4781 20.5396 30.4997Z" fill="white" fill-opacity="0.08"/>
<path d="M26.0947 81.837C26.3606 81.1058 27.1743 80.2834 27.9029 80.0093L39.8338 75.5228C40.5618 75.2481 40.5606 74.8034 39.8311 74.5333L27.6957 70.0416C26.9659 69.7718 26.1481 68.9535 25.8781 68.2231L21.5279 56.4468C21.2582 55.7167 20.8199 55.7179 20.5536 56.4494L16.196 68.4282C15.9297 69.1597 15.1164 69.9818 14.3878 70.2559L2.45717 74.7422C1.72828 75.016 1.7321 75.4546 2.46503 75.7164L14.2874 79.9397C15.0209 80.201 15.8475 81.0111 16.1253 81.737L20.7476 93.8237C21.0264 94.5511 21.4705 94.547 21.7367 93.8155L26.0947 81.837ZM18.6025 77.703C17.1829 76.2986 17.1714 74.0087 18.5753 72.5897C19.9797 71.1701 22.2692 71.1578 23.6885 72.5619C25.1084 73.9667 25.1204 76.2559 23.716 77.6755C22.3107 79.0948 20.0223 79.1077 18.6025 77.703Z" fill="white" fill-opacity="0.08"/>
<path d="M81.6225 35.6169C81.8665 34.2588 82.8382 28.0727 81.5228 26.4214L81.4723 26.3714L86.4292 23.0282L79.579 1.35631L72.9622 23.1006L78.0053 26.4403C76.5559 27.9054 77.6949 34.1305 78.0042 35.5861C76.852 36.2456 76.1047 37.4557 76.1123 38.8627C76.1234 40.9229 77.7906 42.5723 79.8508 42.5612C81.9111 42.5501 83.5604 40.8829 83.5493 38.8227C83.4918 37.4662 82.7315 36.2642 81.6225 35.6169ZM79.7911 40.8027C78.6856 40.8086 77.8265 39.9087 77.8208 38.8535C77.8151 37.7982 78.7148 36.8889 79.77 36.8832C80.8253 36.8775 81.7346 37.7772 81.7403 38.8324C81.746 39.8877 80.8966 40.7968 79.7911 40.8027Z" fill="white" fill-opacity="0.08"/>
<path d="M98.6713 71.9722L77.4922 72.0861L77.454 64.9942L91.1481 65.1621C91.7358 65.167 92.2162 64.6894 92.2131 64.1018L92.2076 63.0875C92.2045 62.4999 91.7189 62.0275 91.1313 62.0387L77.4398 62.3539L77.4272 60.0033L91.1213 60.1712C91.709 60.1761 92.1894 59.6985 92.1862 59.1109L92.1808 58.1047C92.1777 57.517 91.6921 57.0447 91.1045 57.0559L77.1072 57.3807C76.8397 57.044 76.428 56.8289 75.9611 56.8314L74.5766 56.8389L74.5798 57.4426L73.3725 57.4732L73.3691 56.8453L71.3486 56.8562L71.3521 57.5163L70.1448 57.5469L70.1411 56.8708L68.1206 56.8816L68.1244 57.582L66.9171 57.6126L66.9131 56.872L65.5285 56.8795C64.7235 56.8838 64.083 57.5393 64.0873 58.3362L64.1616 72.1497L60.7082 72.1683C59.7583 72.1734 59.014 72.9824 59.0996 73.9238C59.8437 82.0665 65.4541 87.9531 73.0327 90.102L72.4519 92.8743C72.2949 93.6238 72.8703 94.3211 73.6269 94.317L85.9915 94.2506C86.7562 94.2464 87.3159 93.535 87.1509 92.7953L86.5403 90.0294C94.0954 87.7911 99.6421 81.8525 100.299 73.7023C100.374 72.7681 99.6212 71.9671 98.6713 71.9722ZM68.2027 72.1361L66.9952 72.1426L66.9561 64.8655L68.1637 64.8832L68.2027 72.1361ZM68.1512 62.5729L66.9439 62.6035L66.9292 59.8746L68.1368 59.8923L68.1512 62.5729ZM71.4306 72.1187L70.2232 72.1252L70.1843 64.9045L71.392 64.9221L71.4306 72.1187ZM71.3789 62.4991L70.1716 62.5298L70.1576 59.9216L71.3652 59.9393L71.3789 62.4991ZM73.3858 59.9526L74.5934 59.9702L74.6066 62.4174L73.3992 62.448L73.3858 59.9526ZM73.4512 72.1078L73.4126 64.9435L74.6202 64.9611L74.6586 72.1013L73.4512 72.1078ZM84.8815 82.4471C84.4403 82.7312 84.2662 83.2956 84.454 83.7776C84.7478 84.5247 84.1725 85.3328 83.3673 85.2888C82.8439 85.2675 82.3708 85.6081 82.2367 86.116C82.0316 86.898 81.0914 87.2089 80.4688 86.7051C80.0565 86.3773 79.4769 86.3804 79.0681 86.7127C78.443 87.2232 77.4995 86.9223 77.2941 86.1426C77.1545 85.6362 76.6777 85.2926 76.1546 85.3276C75.3499 85.3722 74.766 84.5784 75.0517 83.8282C75.2423 83.3361 75.0542 82.7817 74.6099 82.5023C73.9314 82.0712 73.9261 81.0811 74.5999 80.6347C75.0411 80.3506 75.2152 79.7862 75.0274 79.3042C74.7336 78.5571 75.3089 77.749 76.1141 77.793C76.6375 77.8143 77.1106 77.4737 77.2447 76.9658C77.4498 76.1838 78.39 75.8729 79.0126 76.3767C79.4249 76.7045 80.0045 76.7014 80.4132 76.3691C81.0384 75.8586 81.9819 76.1595 82.1873 76.9392C82.3269 77.4456 82.8037 77.7892 83.3268 77.7542C84.1315 77.7096 84.7154 78.5034 84.4296 79.2536C84.2391 79.7457 84.4272 80.3001 84.8715 80.5795C85.55 81.0186 85.5554 82.0087 84.8815 82.4471Z" fill="white" fill-opacity="0.08"/>
<path d="M82.8605 80.8478C82.8703 82.6751 81.389 84.1643 79.5698 84.174C78.0403 84.1823 76.794 82.9492 76.7857 81.4198C76.7788 80.1318 77.8197 79.0797 79.1076 79.0728C80.2024 79.0669 81.1008 79.9556 81.1066 81.0504C81.1084 81.3804 80.8362 81.6556 80.5062 81.6574C80.1761 81.6592 79.9009 81.3869 79.8992 81.0569C79.8968 80.6222 79.5408 80.278 79.1141 80.2802C78.4943 80.2836 77.9899 80.7934 77.9932 81.4133C77.9979 82.2746 78.702 82.9712 79.5633 82.9666C80.7225 82.9603 81.6592 82.0134 81.653 80.8543C81.6512 80.5162 81.9154 80.2491 82.2535 80.2473C82.5835 80.2455 82.8587 80.5177 82.8605 80.8478Z" fill="white" fill-opacity="0.08"/>
<path d="M22.6127 149.088C20.622 149.099 18.9225 148.074 17.4297 147.171C16.7617 146.742 16.0625 146.365 15.3381 146.04C14.5616 145.748 13.7639 145.515 12.952 145.344C11.1898 144.917 9.36563 144.473 7.99416 143.133C6.6227 141.793 6.17188 139.969 5.72546 138.199C5.54391 137.39 5.30268 136.595 5.00375 135.821C4.67193 135.1 4.28656 134.405 3.85088 133.741C2.94858 132.271 1.90497 130.582 1.89426 128.592C1.88356 126.601 2.90895 124.902 3.8118 123.409C4.24033 122.741 4.6182 122.042 4.94225 121.317C5.23283 120.54 5.4655 119.743 5.63834 118.931C6.06576 117.169 6.50933 115.345 7.85385 113.973C9.19837 112.602 11.0136 112.155 12.7876 111.709C13.5972 111.527 14.3921 111.286 15.1661 110.987C15.887 110.655 16.5821 110.27 17.2454 109.834C18.712 108.928 20.4003 107.884 22.391 107.873C24.3817 107.863 26.0812 108.888 27.574 109.791C28.242 110.219 28.9412 110.597 29.6656 110.921C30.4427 111.212 31.2402 111.445 32.0517 111.617C33.8139 112.045 35.6381 112.488 37.0095 113.833C38.381 115.177 38.8277 116.993 39.2741 118.767C39.4557 119.576 39.6969 120.371 39.9958 121.145C40.3277 121.866 40.713 122.561 41.1487 123.224C42.0551 124.691 43.0987 126.379 43.1094 128.37C43.1201 130.361 42.0947 132.06 41.1919 133.553C40.7634 134.221 40.3855 134.92 40.0614 135.645C39.7709 136.422 39.5382 137.219 39.3654 138.031C38.9379 139.793 38.4944 141.617 37.154 142.989C35.8136 144.36 33.9901 144.807 32.2202 145.253C31.4101 145.433 30.615 145.674 29.8418 145.975C29.1208 146.307 28.4258 146.692 27.7624 147.128C26.2917 148.034 24.6034 149.078 22.6127 149.088ZM22.4043 110.346C21.1061 110.353 19.8572 111.127 18.5304 111.95C17.758 112.449 16.9488 112.889 16.1098 113.265C15.2226 113.613 14.3107 113.893 13.3817 114.104C11.8834 114.483 10.4716 114.841 9.61077 115.711C8.7499 116.581 8.38657 117.997 8.04431 119.499C7.84307 120.431 7.57244 121.345 7.2347 122.236C6.86322 123.08 6.42806 123.894 5.93299 124.671C5.12003 126.019 4.36019 127.28 4.36717 128.578C4.37415 129.877 5.14751 131.13 5.97071 132.452C6.46987 133.225 6.90962 134.034 7.28616 134.873C7.63347 135.76 7.91392 136.672 8.12516 137.601C8.50417 139.099 8.8621 140.511 9.73227 141.372C10.6024 142.233 12.0181 142.596 13.5202 142.938C14.4513 143.14 15.3662 143.411 16.2572 143.748C17.1006 144.12 17.9145 144.555 18.6919 145.05C20.0399 145.863 21.3011 146.623 22.5994 146.616C23.8976 146.609 25.1506 145.835 26.4733 145.012C27.2457 144.513 28.0549 144.073 28.8939 143.697C29.7813 143.35 30.6932 143.069 31.622 142.858C33.1203 142.479 34.5362 142.121 35.3929 141.25C36.2497 140.38 36.6171 138.965 36.9594 137.463C37.1606 136.531 37.4312 135.616 37.769 134.726C38.1405 133.882 38.5756 133.068 39.0707 132.291C39.8837 130.943 40.6435 129.682 40.6365 128.383C40.6295 127.085 39.8562 125.832 39.033 124.509C38.5338 123.737 38.0941 122.928 37.7175 122.089C37.3702 121.202 37.0898 120.29 36.8785 119.361C36.4995 117.862 36.1416 116.451 35.2714 115.59C34.4012 114.729 32.9856 114.366 31.4834 114.019C30.5517 113.82 29.6367 113.549 28.7464 113.21C27.903 112.838 27.0891 112.403 26.3118 111.908C24.9638 111.099 23.7026 110.339 22.4043 110.346Z" fill="white" fill-opacity="0.08"/>
<path d="M21.4624 137.554C18.8272 137.565 16.2951 136.531 14.4209 134.678C12.5468 132.826 11.4834 130.306 11.4638 127.671C11.4564 125.497 12.3109 123.409 13.8399 121.864C15.369 120.32 17.448 119.444 19.6215 119.429C21.4263 119.421 23.1605 120.129 24.4443 121.398C25.7281 122.666 26.4569 124.392 26.471 126.197C26.4769 127.706 25.8837 129.157 24.8216 130.23C23.7595 131.302 22.3152 131.91 20.8056 131.919L20.7923 129.446C21.6464 129.442 22.4638 129.098 23.0648 128.492C23.6659 127.885 24.0015 127.064 23.998 126.21C23.9886 125.061 23.5241 123.962 22.7063 123.155C21.8885 122.347 20.7841 121.897 19.6348 121.902C18.1154 121.912 16.6621 122.525 15.5938 123.605C14.5256 124.686 13.9296 126.146 13.9367 127.666C13.9539 129.644 14.754 131.535 16.1619 132.924C17.5698 134.314 19.4708 135.09 21.4491 135.081C24.0063 135.064 26.4525 134.034 28.2513 132.216C30.0502 130.399 31.0551 127.942 31.0457 125.385L33.5186 125.372C33.5305 128.585 32.2681 131.671 30.0081 133.955C27.7482 136.238 24.6751 137.533 21.4624 137.554Z" fill="white" fill-opacity="0.08"/>
<path d="M27.0178 188.891C27.2837 188.16 28.0974 187.338 28.826 187.064L40.7569 182.577C41.4849 182.302 41.4837 181.858 40.7542 181.588L28.6188 177.096C27.889 176.826 27.0712 176.008 26.8012 175.277L22.451 163.501C22.1813 162.771 21.743 162.772 21.4767 163.504L17.1191 175.482C16.8528 176.214 16.0395 177.036 15.3109 177.31L3.38027 181.796C2.65138 182.07 2.6552 182.509 3.38813 182.771L15.2105 186.994C15.944 187.255 16.7705 188.065 17.0484 188.791L21.6707 200.878C21.9495 201.605 22.3936 201.601 22.6598 200.87L27.0178 188.891ZM19.5256 184.757C18.106 183.353 18.0945 181.063 19.4984 179.644C20.9028 178.224 23.1923 178.212 24.6116 179.616C26.0315 181.021 26.0435 183.31 24.6391 184.73C23.2338 186.149 20.9454 186.162 19.5256 184.757Z" fill="white" fill-opacity="0.08"/>
<path d="M82.5454 142.671C82.7893 141.313 83.7611 135.127 82.4457 133.476L82.3952 133.426L87.3521 130.083L80.5018 108.411L73.885 130.155L78.9282 133.495C77.4787 134.96 78.6178 141.185 78.9271 142.641C77.7749 143.3 77.0276 144.51 77.0352 145.917C77.0462 147.977 78.7134 149.627 80.7737 149.616C82.8339 149.605 84.4833 147.937 84.4722 145.877C84.4146 144.521 83.6544 143.319 82.5454 142.671ZM80.714 147.857C79.6084 147.863 78.7493 146.963 78.7437 145.908C78.738 144.853 79.6376 143.943 80.6929 143.938C81.7481 143.932 82.6575 144.832 82.6632 145.887C82.6688 146.942 81.8195 147.851 80.714 147.857Z" fill="white" fill-opacity="0.08"/>
<path d="M99.5941 179.027L78.415 179.141L78.3769 172.049L92.071 172.217C92.6586 172.221 93.1391 171.744 93.1359 171.156L93.1305 170.142C93.1273 169.554 92.6418 169.082 92.0542 169.093L78.3627 169.408L78.3501 167.058L92.0441 167.226C92.6318 167.231 93.1122 166.753 93.1091 166.165L93.1037 165.159C93.1005 164.571 92.615 164.099 92.0274 164.11L78.0301 164.435C77.7626 164.099 77.3509 163.883 76.884 163.886L75.4994 163.893L75.5027 164.497L74.2953 164.528L74.2919 163.9L72.2714 163.911L72.275 164.571L71.0676 164.601L71.064 163.925L69.0435 163.936L69.0473 164.636L67.8399 164.667L67.8359 163.926L66.4514 163.934C65.6464 163.938 65.0059 164.594 65.0102 165.391L65.0845 179.204L61.6311 179.223C60.6812 179.228 59.9369 180.037 60.0224 180.978C60.7666 189.121 66.3769 195.008 73.9556 197.156L73.3748 199.929C73.2178 200.678 73.7931 201.376 74.5498 201.372L86.9143 201.305C87.6791 201.301 88.2388 200.59 88.0738 199.85L87.4632 197.084C95.0182 194.846 100.565 188.907 101.222 180.757C101.297 179.823 100.544 179.022 99.5941 179.027ZM69.1255 179.191L67.918 179.197L67.8789 171.92L69.0865 171.938L69.1255 179.191ZM69.0741 169.627L67.8667 169.658L67.8521 166.929L69.0597 166.947L69.0741 169.627ZM72.3535 179.173L71.146 179.18L71.1072 171.959L72.3148 171.977L72.3535 179.173ZM72.3018 169.554L71.0944 169.584L71.0804 166.976L72.288 166.994L72.3018 169.554ZM74.3086 167.007L75.5163 167.025L75.5294 169.472L74.3221 169.503L74.3086 167.007ZM74.374 179.162L74.3355 171.998L75.5431 172.016L75.5815 179.156L74.374 179.162ZM85.8044 189.502C85.3631 189.786 85.1891 190.35 85.3768 190.832C85.6706 191.579 85.0954 192.387 84.2901 192.343C83.7668 192.322 83.2936 192.663 83.1595 193.17C82.9544 193.952 82.0142 194.263 81.3917 193.76C80.9793 193.432 80.3998 193.435 79.991 193.767C79.3658 194.278 78.4224 193.977 78.2169 193.197C78.0773 192.691 77.6005 192.347 77.0775 192.382C76.2727 192.427 75.6888 191.633 75.9746 190.883C76.1652 190.391 75.977 189.836 75.5328 189.557C74.8542 189.126 74.8489 188.136 75.5227 187.689C75.9639 187.405 76.138 186.841 75.9503 186.359C75.6565 185.612 76.2317 184.803 77.037 184.847C77.5603 184.869 78.0334 184.528 78.1676 184.02C78.3727 183.238 79.3129 182.927 79.9354 183.431C80.3477 183.759 80.9273 183.756 81.3361 183.424C81.9612 182.913 82.9047 183.214 83.1102 183.994C83.2497 184.5 83.7265 184.844 84.2496 184.809C85.0544 184.764 85.6382 185.558 85.3525 186.308C85.1619 186.8 85.3501 187.355 85.7943 187.634C86.4729 188.073 86.4782 189.063 85.8044 189.502Z" fill="white" fill-opacity="0.08"/>
<path d="M83.7833 187.902C83.7932 189.73 82.3119 191.219 80.4926 191.229C78.9632 191.237 77.7168 190.004 77.7086 188.474C77.7017 187.186 78.7425 186.134 80.0305 186.127C81.1253 186.121 82.0236 187.01 82.0295 188.105C82.0313 188.435 81.7591 188.71 81.429 188.712C81.099 188.714 80.8238 188.441 80.822 188.111C80.8197 187.677 80.4636 187.333 80.037 187.335C79.4172 187.338 78.9127 187.848 78.9161 188.468C78.9207 189.329 79.6248 190.026 80.4861 190.021C81.6453 190.015 82.5821 189.068 82.5758 187.909C82.574 187.571 82.8382 187.304 83.1763 187.302C83.5064 187.3 83.7815 187.572 83.7833 187.902Z" fill="white" fill-opacity="0.08"/>
<path d="M130.59 42.957C128.599 42.9678 126.9 41.9424 125.407 41.0395C124.739 40.611 124.04 40.2331 123.315 39.9091C122.539 39.6166 121.741 39.3839 120.929 39.213C119.167 38.7856 117.343 38.342 115.971 37.0016C114.6 35.6612 114.149 33.8377 113.703 32.0678C113.521 31.2583 113.28 30.4633 112.981 29.6894C112.649 28.9685 112.264 28.2734 111.828 27.61C110.926 26.1393 109.882 24.451 109.872 22.4603C109.861 20.4696 110.886 18.7701 111.789 17.2773C112.218 16.6093 112.595 15.9101 112.92 15.1857C113.21 14.4086 113.443 13.6111 113.616 12.7996C114.043 11.0374 114.487 9.21325 115.831 7.84176C117.176 6.47027 118.991 6.02361 120.765 5.57718C121.574 5.39563 122.369 5.1544 123.143 4.85547C123.864 4.52365 124.559 4.13828 125.223 3.70259C126.689 2.79619 128.378 1.75258 130.368 1.74188C132.359 1.73117 134.059 2.75656 135.551 3.65942C136.219 4.08794 136.918 4.46582 137.643 4.78987C138.42 5.08045 139.218 5.31312 140.029 5.48596C141.791 5.91337 143.615 6.35694 144.987 7.70147C146.358 9.04599 146.805 10.8612 147.251 12.6353C147.433 13.4448 147.674 14.2398 147.973 15.0137C148.305 15.7346 148.69 16.4297 149.126 17.093C150.032 18.5596 151.076 20.248 151.087 22.2386C151.097 24.2293 150.072 25.9288 149.169 27.4216C148.741 28.0896 148.363 28.7888 148.039 29.5132C147.748 30.2903 147.515 31.0879 147.343 31.8993C146.915 33.6615 146.472 35.4857 145.131 36.8571C143.791 38.2286 141.967 38.6753 140.197 39.1217C139.387 39.3014 138.592 39.5426 137.819 39.8434C137.098 40.1753 136.403 40.5606 135.74 40.9963C134.269 41.9027 132.581 42.9463 130.59 42.957ZM130.382 4.21479C129.083 4.22177 127.835 4.99511 126.508 5.81833C125.735 6.31748 124.926 6.75723 124.087 7.13378C123.2 7.48108 122.288 7.76153 121.359 7.97278C119.861 8.35178 118.449 8.70971 117.588 9.57989C116.727 10.4501 116.364 11.8657 116.022 13.3678C115.82 14.2991 115.55 15.214 115.212 16.1048C114.841 16.9483 114.405 17.7622 113.91 18.5395C113.097 19.8875 112.337 21.1487 112.344 22.447C112.351 23.7453 113.125 24.9982 113.948 26.3209C114.447 27.0933 114.887 27.9025 115.263 28.7415C115.611 29.6287 115.891 30.5406 116.102 31.4696C116.481 32.9679 116.839 34.3797 117.71 35.2405C118.58 36.1014 119.995 36.4647 121.498 36.807C122.429 37.0088 123.343 37.2794 124.235 37.6166C125.078 37.9881 125.892 38.4233 126.669 38.9183C128.017 39.7313 129.278 40.4911 130.577 40.4841C131.875 40.4772 133.128 39.7038 134.451 38.8806C135.223 38.3814 136.032 37.9417 136.871 37.5651C137.759 37.2184 138.67 36.938 139.599 36.7261C141.098 36.3471 142.513 35.9892 143.37 35.119C144.227 34.2489 144.594 32.8332 144.937 31.3311C145.138 30.3998 145.409 29.4849 145.746 28.5941C146.118 27.7507 146.553 26.9368 147.048 26.1594C147.861 24.8114 148.621 23.5502 148.614 22.2519C148.607 20.9537 147.833 19.7007 147.01 18.378C146.511 17.6056 146.071 16.7964 145.695 15.9574C145.348 15.0702 145.067 14.1583 144.856 13.2293C144.477 11.731 144.119 10.3193 143.249 9.45839C142.379 8.59752 140.963 8.23419 139.461 7.8878C138.529 7.68854 137.614 7.41787 136.724 7.07819C135.88 6.70671 135.066 6.27155 134.289 5.77648C132.941 4.96765 131.68 4.20781 130.382 4.21479Z" fill="white" fill-opacity="0.08"/>
<path d="M129.439 31.423C126.804 31.4339 124.272 30.3997 122.398 28.5472C120.524 26.6946 119.46 24.1746 119.441 21.5395C119.433 19.3659 120.288 17.278 121.817 15.7332C123.346 14.1884 125.425 13.3126 127.599 13.2977C129.403 13.2901 131.138 13.9982 132.421 15.2667C133.705 16.5353 134.434 18.2609 134.448 20.0657C134.454 21.5753 133.861 23.0256 132.799 24.0984C131.737 25.1712 130.292 25.7789 128.783 25.7881L128.769 23.3152C129.623 23.3106 130.441 22.9672 131.042 22.3604C131.643 21.7536 131.979 20.933 131.975 20.0789C131.966 18.9297 131.501 17.831 130.683 17.0235C129.866 16.216 128.761 15.7655 127.612 15.7706C126.092 15.7809 124.639 16.3936 123.571 17.4742C122.503 18.5547 121.907 20.015 121.914 21.5344C121.931 23.5126 122.731 25.4035 124.139 26.7933C125.547 28.183 127.448 28.9585 129.426 28.9501C131.983 28.933 134.43 27.9028 136.228 26.0853C138.027 24.2677 139.032 21.8111 139.023 19.2538L141.496 19.2405C141.508 22.4533 140.245 25.5397 137.985 27.8233C135.725 30.1069 132.652 31.4013 129.439 31.423Z" fill="white" fill-opacity="0.08"/>
<path d="M134.995 82.7601C135.261 82.0289 136.074 81.2064 136.803 80.9323L148.734 76.4458C149.462 76.1711 149.461 75.7264 148.731 75.4564L136.596 70.9646C135.866 70.6949 135.048 69.8765 134.778 69.1461L130.428 57.3699C130.158 56.6398 129.72 56.641 129.454 57.3725L125.096 69.3512C124.83 70.0827 124.017 70.9049 123.288 71.179L111.357 75.6652C110.628 75.939 110.632 76.3776 111.365 76.6395L123.188 80.8627C123.921 81.124 124.748 81.9341 125.025 82.6601L129.648 94.7467C129.927 95.4742 130.371 95.47 130.637 94.7385L134.995 82.7601ZM127.503 78.626C126.083 77.2216 126.072 74.9318 127.475 73.5128C128.88 72.0932 131.169 72.0809 132.589 73.485C134.009 74.8897 134.021 77.1789 132.616 78.5985C131.211 80.0178 128.922 80.0307 127.503 78.626Z" fill="white" fill-opacity="0.08"/>
<path d="M190.522 36.5402C190.766 35.1821 191.738 28.9959 190.422 27.3447L190.372 27.2947L195.329 23.9514L188.479 2.27956L181.862 24.0238L186.905 27.3636C185.456 28.8287 186.595 35.0538 186.904 36.5094C185.752 37.1689 185.004 38.3789 185.012 39.7859C185.023 41.8462 186.69 43.4955 188.75 43.4844C190.811 43.4734 192.46 41.8062 192.449 39.7459C192.391 38.3894 191.631 37.1875 190.522 36.5402ZM188.691 41.7259C187.585 41.7319 186.726 40.832 186.72 39.7767C186.715 38.7215 187.614 37.8121 188.67 37.8064C189.725 37.8008 190.634 38.7004 190.64 39.7557C190.646 40.8109 189.796 41.72 188.691 41.7259Z" fill="white" fill-opacity="0.08"/>
<path d="M207.571 72.8955L186.392 73.0094L186.354 65.9175L200.048 66.0853C200.636 66.0902 201.116 65.6127 201.113 65.025L201.108 64.0107C201.104 63.4231 200.619 62.9508 200.031 62.962L186.34 63.2771L186.327 60.9265L200.021 61.0944C200.609 61.0993 201.089 60.6218 201.086 60.0341L201.081 59.0279C201.078 58.4403 200.592 57.9679 200.004 57.9791L186.007 58.3039C185.74 57.9673 185.328 57.7521 184.861 57.7547L183.476 57.7621L183.48 58.3658L182.272 58.3965L182.269 57.7686L180.248 57.7795L180.252 58.4395L179.045 58.4702L179.041 57.794L177.021 57.8049L177.024 58.5052L175.817 58.5358L175.813 57.7953L174.428 57.8027C173.623 57.807 172.983 58.4625 172.987 59.2595L173.062 73.073L169.608 73.0916C168.658 73.0967 167.914 73.9057 167.999 74.8471C168.744 82.9897 174.354 88.8764 181.933 91.0252L181.352 93.7976C181.195 94.5471 181.77 95.2444 182.527 95.2403L194.891 95.1738C195.656 95.1697 196.216 94.4583 196.051 93.7186L195.44 90.9526C202.995 88.7143 208.542 82.7757 209.199 74.6255C209.274 73.6913 208.521 72.8904 207.571 72.8955ZM177.103 73.0593L175.895 73.0658L175.856 65.7887L177.064 65.8064L177.103 73.0593ZM177.051 63.4961L175.844 63.5267L175.829 60.7978L177.037 60.8155L177.051 63.4961ZM180.331 73.042L179.123 73.0484L179.084 65.8277L180.292 65.8454L180.331 73.042ZM180.279 63.4224L179.071 63.453L179.057 60.8449L180.265 60.8625L180.279 63.4224ZM182.286 60.8758L183.493 60.8935L183.506 63.3406L182.299 63.3713L182.286 60.8758ZM182.351 73.0311L182.313 65.8667L183.52 65.8844L183.559 73.0246L182.351 73.0311ZM193.781 83.3703C193.34 83.6544 193.166 84.2189 193.354 84.7009C193.648 85.448 193.072 86.2561 192.267 86.2121C191.744 86.1907 191.271 86.5314 191.137 87.0393C190.931 87.8212 189.991 88.1322 189.369 87.6284C188.956 87.3005 188.377 87.3037 187.968 87.6359C187.343 88.1464 186.399 87.8456 186.194 87.0658C186.054 86.5594 185.578 86.2159 185.055 86.2509C184.25 86.2954 183.666 85.5016 183.952 84.7514C184.142 84.2594 183.954 83.7049 183.51 83.4255C182.831 82.9945 182.826 82.0044 183.5 81.558C183.941 81.2739 184.115 80.7094 183.927 80.2274C183.634 79.4803 184.209 78.6722 185.014 78.7162C185.537 78.7376 186.01 78.3969 186.145 77.889C186.35 77.1071 187.29 76.7961 187.912 77.2999C188.325 77.6278 188.904 77.6246 189.313 77.2924C189.938 76.7819 190.882 77.0827 191.087 77.8625C191.227 78.3689 191.704 78.7124 192.227 78.6774C193.031 78.6329 193.615 79.4267 193.33 80.1769C193.139 80.6689 193.327 81.2234 193.771 81.5028C194.45 81.9419 194.455 82.932 193.781 83.3703Z" fill="white" fill-opacity="0.08"/>
<path d="M191.76 81.7712C191.77 83.5985 190.289 85.0877 188.469 85.0974C186.94 85.1057 185.694 83.8727 185.685 82.3432C185.678 81.0552 186.719 80.0031 188.007 79.9962C189.102 79.9903 190 80.879 190.006 81.9738C190.008 82.3038 189.736 82.579 189.406 82.5808C189.076 82.5826 188.801 82.3103 188.799 81.9803C188.796 81.5456 188.44 81.2014 188.014 81.2037C187.394 81.207 186.89 81.7169 186.893 82.3367C186.898 83.198 187.602 83.8946 188.463 83.89C189.622 83.8837 190.559 82.9368 190.553 81.7777C190.551 81.4396 190.815 81.1725 191.153 81.1707C191.483 81.1689 191.758 81.4411 191.76 81.7712Z" fill="white" fill-opacity="0.08"/>
<path d="M131.513 150.011C129.522 150.022 127.823 148.997 126.33 148.094C125.662 147.665 124.963 147.287 124.238 146.963C123.462 146.671 122.664 146.438 121.852 146.267C120.09 145.84 118.266 145.396 116.894 144.056C115.523 142.715 115.072 140.892 114.626 139.122C114.444 138.313 114.203 137.518 113.904 136.744C113.572 136.023 113.187 135.328 112.751 134.664C111.849 133.194 110.805 131.505 110.794 129.515C110.784 127.524 111.809 125.824 112.712 124.332C113.14 123.664 113.518 122.964 113.842 122.24C114.133 121.463 114.366 120.665 114.538 119.854C114.966 118.092 115.409 116.267 116.754 114.896C118.099 113.524 119.914 113.078 121.688 112.631C122.497 112.45 123.292 112.209 124.066 111.91C124.787 111.578 125.482 111.193 126.146 110.757C127.612 109.85 129.3 108.807 131.291 108.796C133.282 108.785 134.981 109.811 136.474 110.714C137.142 111.142 137.841 111.52 138.566 111.844C139.343 112.135 140.14 112.367 140.952 112.54C142.714 112.968 144.538 113.411 145.91 114.756C147.281 116.1 147.728 117.915 148.174 119.689C148.356 120.499 148.597 121.294 148.896 122.068C149.228 122.789 149.613 123.484 150.049 124.147C150.955 125.614 151.999 127.302 152.01 129.293C152.02 131.284 150.995 132.983 150.092 134.476C149.664 135.144 149.286 135.843 148.962 136.567C148.671 137.345 148.438 138.142 148.265 138.954C147.838 140.716 147.395 142.54 146.054 143.911C144.714 145.283 142.89 145.73 141.12 146.176C140.31 146.356 139.515 146.597 138.742 146.898C138.021 147.229 137.326 147.615 136.663 148.051C135.192 148.957 133.503 150.001 131.513 150.011ZM131.304 111.269C130.006 111.276 128.757 112.049 127.431 112.873C126.658 113.372 125.849 113.811 125.01 114.188C124.123 114.535 123.211 114.816 122.282 115.027C120.784 115.406 119.372 115.764 118.511 116.634C117.65 117.504 117.287 118.92 116.944 120.422C116.743 121.353 116.473 122.268 116.135 123.159C115.763 124.002 115.328 124.816 114.833 125.594C114.02 126.942 113.26 128.203 113.267 129.501C113.274 130.799 114.048 132.052 114.871 133.375C115.37 134.148 115.81 134.957 116.186 135.796C116.534 136.683 116.814 137.595 117.025 138.524C117.404 140.022 117.762 141.434 118.632 142.295C119.503 143.156 120.918 143.519 122.42 143.861C123.351 144.063 124.266 144.334 125.157 144.671C126.001 145.042 126.815 145.477 127.592 145.973C128.94 146.786 130.201 147.545 131.5 147.538C132.798 147.531 134.051 146.758 135.373 145.935C136.146 145.436 136.955 144.996 137.794 144.619C138.681 144.273 139.593 143.992 140.522 143.78C142.02 143.401 143.436 143.043 144.293 142.173C145.15 141.303 145.517 139.887 145.86 138.385C146.061 137.454 146.331 136.539 146.669 135.648C147.041 134.805 147.476 133.991 147.971 133.214C148.784 131.866 149.544 130.604 149.537 129.306C149.53 128.008 148.756 126.755 147.933 125.432C147.434 124.66 146.994 123.851 146.618 123.012C146.27 122.124 145.99 121.213 145.779 120.284C145.4 118.785 145.042 117.373 144.172 116.513C143.301 115.652 141.886 115.288 140.384 114.942C139.452 114.743 138.537 114.472 137.647 114.132C136.803 113.761 135.989 113.326 135.212 112.831C133.864 112.022 132.603 111.262 131.304 111.269Z" fill="white" fill-opacity="0.08"/>
<path d="M130.363 138.477C127.727 138.488 125.195 137.454 123.321 135.601C121.447 133.749 120.384 131.229 120.364 128.593C120.357 126.42 121.211 124.332 122.74 122.787C124.269 121.242 126.348 120.367 128.522 120.352C130.326 120.344 132.061 121.052 133.344 122.321C134.628 123.589 135.357 125.315 135.371 127.12C135.377 128.629 134.784 130.08 133.722 131.152C132.66 132.225 131.215 132.833 129.706 132.842L129.692 130.369C130.547 130.365 131.364 130.021 131.965 129.414C132.566 128.808 132.902 127.987 132.898 127.133C132.889 125.984 132.424 124.885 131.606 124.077C130.789 123.27 129.684 122.819 128.535 122.825C127.016 122.835 125.562 123.448 124.494 124.528C123.426 125.609 122.83 127.069 122.837 128.588C122.854 130.567 123.654 132.457 125.062 133.847C126.47 135.237 128.371 136.012 130.349 136.004C132.906 135.987 135.353 134.957 137.151 133.139C138.95 131.322 139.955 128.865 139.946 126.308L142.419 126.294C142.431 129.507 141.168 132.594 138.908 134.877C136.648 137.161 133.575 138.455 130.363 138.477Z" fill="white" fill-opacity="0.08"/>
<path d="M135.918 189.814C136.184 189.083 136.998 188.26 137.726 187.986L149.657 183.5C150.385 183.225 150.384 182.78 149.655 182.51L137.519 178.018C136.789 177.749 135.972 176.93 135.702 176.2L131.351 164.424C131.082 163.694 130.643 163.695 130.377 164.426L126.019 176.405C125.753 177.136 124.94 177.959 124.211 178.233L112.281 182.719C111.552 182.993 111.556 183.431 112.289 183.693L124.111 187.916C124.844 188.178 125.671 188.988 125.949 189.714L130.571 201.801C130.85 202.528 131.294 202.524 131.56 201.792L135.918 189.814ZM128.426 185.68C127.006 184.275 126.995 181.986 128.399 180.567C129.803 179.147 132.093 179.135 133.512 180.539C134.932 181.943 134.944 184.233 133.539 185.652C132.134 187.072 129.846 187.084 128.426 185.68Z" fill="white" fill-opacity="0.08"/>
<path d="M191.446 143.594C191.689 142.236 192.661 136.05 191.346 134.399L191.295 134.349L196.252 131.005L189.402 109.334L182.785 131.078L187.828 134.418C186.379 135.883 187.518 142.108 187.827 143.563C186.675 144.223 185.928 145.433 185.935 146.84C185.946 148.9 187.614 150.549 189.674 150.538C191.734 150.527 193.383 148.86 193.372 146.8C193.315 145.443 192.555 144.241 191.446 143.594ZM189.614 148.78C188.509 148.786 187.649 147.886 187.644 146.831C187.638 145.775 188.538 144.866 189.593 144.86C190.648 144.855 191.558 145.754 191.563 146.81C191.569 147.865 190.72 148.774 189.614 148.78Z" fill="white" fill-opacity="0.08"/>
<path d="M208.494 179.949L187.315 180.063L187.277 172.971L200.971 173.139C201.559 173.144 202.039 172.667 202.036 172.079L202.031 171.065C202.027 170.477 201.542 170.005 200.954 170.016L187.263 170.331L187.25 167.981L200.944 168.148C201.532 168.153 202.012 167.676 202.009 167.088L202.004 166.082C202.001 165.494 201.515 165.022 200.928 165.033L186.93 165.358C186.663 165.021 186.251 164.806 185.784 164.809L184.4 164.816L184.403 165.42L183.195 165.45L183.192 164.823L181.172 164.833L181.175 165.494L179.968 165.524L179.964 164.848L177.944 164.859L177.947 165.559L176.74 165.59L176.736 164.849L175.351 164.857C174.547 164.861 173.906 165.516 173.91 166.313L173.985 180.127L170.531 180.146C169.581 180.151 168.837 180.96 168.923 181.901C169.667 190.044 175.277 195.93 182.856 198.079L182.275 200.852C182.118 201.601 182.693 202.298 183.45 202.294L195.814 202.228C196.579 202.224 197.139 201.512 196.974 200.773L196.363 198.007C203.918 195.768 209.465 189.83 210.122 181.679C210.197 180.745 209.444 179.944 208.494 179.949ZM178.026 180.113L176.818 180.12L176.779 172.843L177.987 172.86L178.026 180.113ZM177.974 170.55L176.767 170.581L176.752 167.852L177.96 167.869L177.974 170.55ZM181.254 180.096L180.046 180.102L180.007 172.882L181.215 172.899L181.254 180.096ZM181.202 170.476L179.995 170.507L179.981 167.899L181.188 167.917L181.202 170.476ZM183.209 167.93L184.416 167.947L184.43 170.395L183.222 170.425L183.209 167.93ZM183.274 180.085L183.236 172.921L184.443 172.938L184.482 180.079L183.274 180.085ZM194.705 190.424C194.263 190.708 194.089 191.273 194.277 191.755C194.571 192.502 193.996 193.31 193.19 193.266C192.667 193.245 192.194 193.585 192.06 194.093C191.855 194.875 190.914 195.186 190.292 194.682C189.879 194.354 189.3 194.358 188.891 194.69C188.266 195.2 187.323 194.9 187.117 194.12C186.977 193.613 186.501 193.27 185.978 193.305C185.173 193.349 184.589 192.556 184.875 191.805C185.065 191.313 184.877 190.759 184.433 190.48C183.754 190.048 183.749 189.058 184.423 188.612C184.864 188.328 185.038 187.763 184.85 187.281C184.557 186.534 185.132 185.726 185.937 185.77C186.46 185.792 186.934 185.451 187.068 184.943C187.273 184.161 188.213 183.85 188.836 184.354C189.248 184.682 189.827 184.679 190.236 184.346C190.861 183.836 191.805 184.137 192.01 184.916C192.15 185.423 192.627 185.766 193.15 185.731C193.955 185.687 194.538 186.481 194.253 187.231C194.062 187.723 194.25 188.277 194.694 188.557C195.373 188.996 195.378 189.986 194.705 190.424Z" fill="white" fill-opacity="0.08"/>
<path d="M192.683 188.825C192.693 190.653 191.212 192.142 189.392 192.152C187.863 192.16 186.616 190.927 186.608 189.397C186.601 188.109 187.642 187.057 188.93 187.05C190.025 187.044 190.923 187.933 190.929 189.028C190.931 189.358 190.659 189.633 190.329 189.635C189.999 189.637 189.723 189.365 189.722 189.034C189.719 188.6 189.363 188.256 188.937 188.258C188.317 188.261 187.812 188.771 187.816 189.391C187.82 190.252 188.524 190.949 189.386 190.944C190.545 190.938 191.482 189.991 191.476 188.832C191.474 188.494 191.738 188.227 192.076 188.225C192.406 188.223 192.681 188.495 192.683 188.825Z" fill="white" fill-opacity="0.08"/>
</svg>
